<?xml version="1.0" encoding="UTF-8"?>
<svg xmlns="http://www.w3.org/2000/svg" width="2092.7" height="390.45" version="1.1" viewBox="0 0 161.35 30.105">
  <g transform="translate(-15.704 -81.327)" clip-rule="evenodd" fill-rule="evenodd">
    <path d="m32.228 81.327c8.803 0.852 18.458 5.253 23.996 11.643 7.099 8.093 4.686 16.187-5.396 18.032-10.081 1.988-23.996-3.123-31.095-11.217-5.396-6.248-5.253-12.495-0.284-15.902l27.971 20.73z" fill="#c92043"></path>
    <path d="m170.8 111-3.549-14.199c-0.428-1.703-0.711-3.407-0.994-4.969h-0.143c-0.283 1.704-0.426 3.266-0.852 5.111l-3.551 14.057h-6.105l8.094-29.533h4.828l8.52 29.533zm-93.142-29.533 3.55 14.198c0.568 1.704 0.71 3.409 0.994 4.969h0.142c0.284-1.703 0.426-3.408 0.852-5.111l3.55-14.056h6.105l-8.093 29.533h-4.828l-8.519-29.533zm19.593 0h5.822v29.533h-5.822zm38.764 0 2.98 17.465 2.414-17.465h7.809l2.982 29.533h-5.963l-1.42-21.298-0.994 7.241-2.414 14.057h-4.543l-2.84-14.199-0.994-6.531v-0.568h-0.142l-0.852 21.298h-6.248l2.557-29.533zm-18.459 0c-0.994 0.71-1.703 1.987-2.271 3.265-1.562 3.55 0.141 6.389 1.561 8.945 0.143 0.284 0.428 0.71 0.568 1.136 3.266 5.395 4.402 9.37 2.131 15.049l-0.568 1.137h-7.1c0.852-0.711 1.703-1.703 2.129-2.84 1.705-3.834-0.283-7.383-2.129-10.934-2.129-4.117-4.402-8.376-1.988-14.198 0.143-0.568 0.711-1.562 0.711-1.562h6.956z"></path>
  </g>
</svg>
